<?xml version="1.0" encoding="utf-8"?>

<!DOCTYPE svg PUBLIC "-//W3C//DTD SVG 1.1//EN" "http://www.w3.org/Graphics/SVG/1.1/DTD/svg11.dtd">
<!-- Uploaded to: SVG Repo, www.svgrepo.com, Generator: SVG Repo Mixer Tools -->
<svg height="800px" width="800px" version="1.1" id="_x32_" xmlns="http://www.w3.org/2000/svg" xmlns:xlink="http://www.w3.org/1999/xlink" 
	 viewBox="0 0 512 512"  xml:space="preserve">
<style type="text/css">
	.st0{fill:#000000;}
</style>
<g>
	<path class="st0" d="M225.471,182.04c0.804,2.93,3.835,4.646,6.766,3.849c2.937-0.811,4.654-3.842,3.849-6.772
		c-1.25-4.503-3.921-8.388-7.498-11.16c-3.577-2.772-8.115-4.424-12.97-4.424c-4.84,0-9.336,1.63-12.906,4.367
		c-3.569,2.736-6.241,6.571-7.512,11.031c-0.84,2.923,0.862,5.968,3.778,6.801c2.923,0.832,5.975-0.862,6.808-3.785
		c0.603-2.125,1.896-3.986,3.62-5.307c1.73-1.322,3.849-2.089,6.212-2.097c2.363,0.008,4.503,0.79,6.234,2.125
		C223.59,178.004,224.876,179.892,225.471,182.04z"/>
	<path class="st0" d="M309.325,167.957c-3.584-2.772-8.109-4.424-12.978-4.424c-4.826,0-9.329,1.63-12.898,4.367
		c-3.569,2.736-6.24,6.571-7.519,11.031c-0.833,2.915,0.855,5.968,3.777,6.801c2.93,0.84,5.968-0.854,6.808-3.785
		c0.61-2.119,1.896-3.978,3.627-5.307c1.731-1.322,3.849-2.089,6.205-2.097c2.37,0.008,4.503,0.79,6.241,2.125
		c1.73,1.336,3.023,3.225,3.612,5.372c0.811,2.93,3.842,4.646,6.772,3.849c2.93-0.811,4.654-3.842,3.842-6.772
		C315.572,174.614,312.901,170.729,309.325,167.957z"/>
	<path class="st0" d="M284.77,220.519c-6.55,9.078-17.186,14.737-28.77,14.73c-11.555,0.007-22.213-5.66-28.769-14.73
		c-1.781-2.463-5.228-3.023-7.684-1.235c-2.471,1.774-3.024,5.221-1.243,7.677c8.597,11.893,22.522,19.29,37.696,19.297
		c15.189,0,29.114-7.404,37.697-19.297c1.781-2.464,1.228-5.903-1.243-7.684C289.991,217.496,286.551,218.056,284.77,220.519z"/>
	<path class="st0" d="M411.878,173.587C406.262,58.351,274.256,0,256.001,0c-18.256,0-150.254,58.351-155.877,173.587
		C95.082,277.024,116.979,512,256.001,512C395.03,512,416.913,277.024,411.878,173.587z M242.463,83.444
		c4.115-0.532,8.309-0.819,12.575-0.819c5.781,0,11.433,0.517,16.934,1.479c0.567,0.654,1.156,1.401,1.745,2.291
		c2.485,3.764,4.991,9.688,5.006,19.053c0,7.081-1.487,16.173-5.696,27.62c-13.271-10.678-20.834-20.504-25.107-28.611
		c-4.654-8.826-5.494-15.656-5.508-19.606C242.413,84.327,242.435,83.86,242.463,83.444z M232.983,85.116
		c0.036,5.344,1.279,13.696,6.593,23.75c2.37,4.503,5.559,9.329,9.782,14.392c-4.223-1.702-8.453-3.289-12.424-4.969
		c-6.844-2.88-12.848-6.104-16.913-10.406c-2.039-2.148-3.648-4.546-4.797-7.469c-0.94-2.42-1.544-5.243-1.738-8.582
		C219.669,88.944,226.19,86.675,232.983,85.116z M339.616,384.267c-2.025,2.262-5.508,2.456-7.77,0.431l-103.969-93.024
		c6.428,1.566,13.07,2.578,19.879,3.01l24.346,21.782l27.29-30.501c5.206-2.197,10.219-4.776,14.996-7.698
		c1.896,2.06,1.967,5.249,0.071,7.375l-34.148,38.17l58.875,52.684C341.448,378.522,341.641,381.998,339.616,384.267z
		 M376.968,204.03c-3.346,3.333-7.878,5.365-12.977,5.372c-2.105,0-4.123-0.374-6.076-1.056l-7.44-2.622l-2.592,7.455
		c-6.672,19.204-19.147,35.728-35.32,47.427c-16.188,11.706-36.008,18.593-57.524,18.6c-21.423-0.007-41.172-6.83-57.317-18.442
		c-16.137-11.613-28.612-28.008-35.355-47.076l-2.441-6.902l-7.06,1.932c-1.602,0.446-3.217,0.683-4.855,0.683
		c-5.091-0.008-9.63-2.04-12.977-5.372c-3.332-3.346-5.372-7.885-5.372-12.977c0-5.084,2.04-9.631,5.372-12.97
		c3.347-3.332,7.886-5.372,12.977-5.379c0.316,0,0.797,0.029,1.458,0.079l7.297,0.574l1.091-7.232
		c3.562-23.62,15.541-44.49,32.799-59.471c4.309-3.742,8.948-7.116,13.86-10.068c0.424,2.672,1.077,5.171,1.997,7.469
		c1.451,3.634,3.484,6.794,5.889,9.494c4.23,4.726,9.509,8.051,15.024,10.78c8.28,4.072,17.236,6.887,24.748,10.398
		c3.763,1.745,7.146,3.641,9.918,5.824c2.786,2.191,4.956,4.632,6.492,7.598c0.84,1.602,2.5,2.586,4.302,2.535
		c1.81-0.043,3.418-1.099,4.172-2.736c8.158-17.681,11.096-31.585,11.103-42.501c0.006-7.447-1.401-13.48-3.369-18.227
		c12.92,4.107,24.698,10.794,34.71,19.498c17.264,15.024,29.222,35.944,32.748,59.615l1.156,7.806l7.807-1.192
		c1.042-0.158,1.953-0.244,2.779-0.244c5.099,0.007,9.631,2.046,12.977,5.379c3.333,3.339,5.365,7.886,5.38,12.97
		C382.333,196.145,380.301,200.684,376.968,204.03z"/>
</g>
</svg>